<svg width="231" height="41" viewBox="0 0 231 41" fill="none" xmlns="http://www.w3.org/2000/svg">
<path d="M49.8287 19.4397C49.8287 25.9184 44.5962 31.1704 38.1416 31.1704C34.4991 31.1704 31.2458 29.4978 29.1024 26.876C29.0941 26.9339 29.0855 26.9916 29.0766 27.0494C28.7591 29.1027 28.0418 31.0731 26.9657 32.8482C26.7481 33.2072 26.5166 33.5568 26.272 33.8963C29.4978 36.5677 33.633 38.1724 38.1416 38.1724C48.4489 38.1724 56.8047 29.7855 56.8047 19.4397C56.8047 9.09385 48.4489 0.706909 38.1416 0.706909C27.8342 0.706909 19.4785 9.09385 19.4785 19.4397C19.4785 24.4346 21.4261 28.9729 24.6008 32.3312C24.7504 32.1142 24.8938 31.8925 25.0308 31.6664C25.9524 30.1464 26.5666 28.4591 26.8384 26.7008C27.069 25.2092 27.0494 23.6914 26.7823 22.2099C26.7253 21.9735 26.6754 21.7343 26.6328 21.4925C26.627 21.4679 26.6211 21.4433 26.6152 21.4188L26.6199 21.4176C26.5112 20.7746 26.4545 20.1138 26.4545 19.4397C26.4545 12.961 31.687 7.70896 38.1416 7.70896C44.5962 7.70896 49.8287 12.961 49.8287 19.4397Z" fill="#96989A"/>
<path d="M19.9594 23.7121C20.0007 24.0098 20.0221 24.3139 20.0221 24.623C20.0221 28.239 17.1016 31.1704 13.499 31.1704C9.89647 31.1704 6.97602 28.239 6.97602 24.623C6.97602 21.007 9.89647 18.0756 13.499 18.0756C14.8797 18.0756 16.1602 18.5062 17.2145 19.2408C17.2376 16.7953 17.6861 14.3621 18.5498 12.0539C16.9896 11.4216 15.2848 11.0736 13.499 11.0736C6.04373 11.0736 0 17.1399 0 24.623C0 32.1061 6.04373 38.1724 13.499 38.1724C20.9544 38.1724 26.9981 32.1061 26.9981 24.623C26.9981 19.7481 24.4332 15.4746 20.5842 13.0877C19.4478 16.2521 19.1803 19.6688 19.8143 22.9774C19.8649 23.1734 19.9066 23.373 19.9391 23.5757C19.9491 23.6204 19.9594 23.665 19.9698 23.7096L19.9594 23.7121Z" fill="#ED3237"/>
<path d="M26.6182 21.4181C25.7703 17.9091 23.5614 14.934 20.5842 13.0877C19.8644 15.092 19.4932 17.1976 19.4789 19.3127C19.4786 19.355 19.4785 19.3973 19.4785 19.4397C19.4785 19.4885 19.4787 19.5372 19.479 19.5858C19.4878 20.7194 19.5992 21.8546 19.8143 22.9774C19.8649 23.1734 19.9066 23.373 19.9391 23.5757C19.9491 23.6204 19.9594 23.6651 19.9698 23.7097L19.9657 23.7106C20.7305 27.0025 22.36 29.9608 24.6008 32.3313C24.7504 32.1142 24.8938 31.8925 25.0308 31.6665C25.9524 30.1464 26.5666 28.4591 26.8384 26.7008C26.9431 26.0237 26.9962 25.3413 26.998 24.6592C26.9981 24.6472 26.9981 24.6351 26.9981 24.623C26.9981 24.6113 26.9981 24.5996 26.998 24.5879C26.996 23.7913 26.9239 22.9955 26.7823 22.2099C26.7253 21.9735 26.6754 21.7343 26.6328 21.4925C26.627 21.4679 26.6212 21.4434 26.6152 21.4188L26.6182 21.4181Z" fill="#848688"/>
<path d="M79.9807 19.1356C79.9807 18.4857 79.8255 17.9321 79.5149 17.4748C79.2266 16.9934 78.8384 16.5842 78.3505 16.2472C77.8625 15.9102 77.2969 15.6214 76.6537 15.3807C76.0326 15.1159 75.3894 14.8512 74.724 14.5864C74.0142 14.3216 73.2379 14.0087 72.3951 13.6477C71.5522 13.2625 70.7648 12.7932 70.0329 12.2396C69.3231 11.6619 68.7243 10.9879 68.2363 10.2177C67.7483 9.44746 67.5044 8.5328 67.5044 7.47372C67.5044 6.46278 67.7262 5.49999 68.1698 4.58533C68.6134 3.67067 69.2011 2.87636 69.9331 2.2024C70.6872 1.52844 71.5522 0.998905 72.5282 0.613785C73.5041 0.204595 74.5244 0 75.589 0C77.0086 0 78.2063 0.28884 79.1822 0.86652C80.1803 1.42013 80.9899 2.09409 81.611 2.8884C82.2542 3.6827 82.72 4.52515 83.0083 5.41574C83.3188 6.28226 83.4852 7.01639 83.5074 7.61814H79.4484C79.2266 6.53499 78.8052 5.68051 78.1841 5.05469C77.5853 4.42887 76.7091 4.11596 75.5558 4.11596C74.3359 4.11596 73.3599 4.42887 72.628 5.05469C71.896 5.68051 71.5301 6.41464 71.5301 7.25709C71.5301 7.78663 71.6853 8.23193 71.9958 8.59297C72.3064 8.92995 72.6834 9.23083 73.127 9.4956C73.5706 9.7363 74.0475 9.95293 74.5577 10.1455C75.09 10.314 75.5779 10.4704 76.0215 10.6149C76.9531 10.9518 77.8847 11.3249 78.8163 11.7341C79.77 12.1192 80.6239 12.6247 81.3781 13.2505C82.1322 13.8763 82.7421 14.6586 83.2079 15.5973C83.6959 16.5361 83.9399 17.7155 83.9399 19.1356C83.9399 20.3632 83.707 21.4584 83.2412 22.4212C82.7976 23.384 82.1876 24.1903 81.4113 24.8402C80.635 25.4901 79.7367 25.9835 78.7164 26.3205C77.7183 26.6815 76.6759 26.8621 75.589 26.8621C74.48 26.8621 73.4043 26.6454 72.3618 26.2122C71.3415 25.7789 70.421 25.1531 69.6004 24.3347C68.7797 23.4923 68.1254 22.4693 67.6374 21.2658C67.1495 20.0623 66.9055 18.6783 66.9055 17.1137H70.8979C70.8979 17.884 70.9977 18.6061 71.1974 19.28C71.4192 19.954 71.7297 20.5437 72.1289 21.0492C72.5282 21.5546 73.0161 21.9638 73.5928 22.2767C74.1695 22.5656 74.8238 22.71 75.5558 22.71C76.8866 22.71 77.9512 22.4091 78.7497 21.8074C79.5704 21.1816 79.9807 20.291 79.9807 19.1356Z" fill="#ED3237"/>
<path d="M86.9337 17.0054C86.9337 15.6334 87.1666 14.3577 87.6324 13.1783C88.1203 11.9748 88.7746 10.9398 89.5953 10.0733C90.416 9.18269 91.3697 8.48466 92.4565 7.97919C93.5656 7.44965 94.7522 7.18488 96.0165 7.18488C97.2807 7.18488 98.4563 7.44965 99.5431 7.97919C100.652 8.48466 101.606 9.18269 102.404 10.0733C103.225 10.9398 103.868 11.9748 104.334 13.1783C104.822 14.3577 105.066 15.6334 105.066 17.0054V26.0678H101.207V25.0568C99.6984 26.2363 97.9683 26.826 96.0165 26.826C94.6413 26.826 93.3881 26.5732 92.2569 26.0678C91.1479 25.5623 90.1942 24.8643 89.3957 23.9737C88.6194 23.0831 88.0094 22.0481 87.5658 20.8687C87.1444 19.6652 86.9337 18.3774 86.9337 17.0054ZM90.8263 17.0054C90.8263 17.7757 90.9594 18.5098 91.2255 19.2078C91.5139 19.8818 91.891 20.4715 92.3567 20.977C92.8225 21.4824 93.3659 21.8916 93.987 22.2045C94.6302 22.4934 95.3067 22.6378 96.0165 22.6378C96.7262 22.6378 97.3916 22.5054 98.0127 22.2406C98.6559 21.9518 99.2104 21.5546 99.6762 21.0492C100.142 20.5437 100.508 19.954 100.774 19.28C101.062 18.582 101.207 17.8238 101.207 17.0054C101.207 16.2352 101.062 15.5131 100.774 14.8391C100.508 14.1411 100.142 13.5394 99.6762 13.0339C99.2104 12.5284 98.6559 12.1313 98.0127 11.8424C97.3916 11.5295 96.7262 11.3731 96.0165 11.3731C95.3067 11.3731 94.6302 11.5295 93.987 11.8424C93.3659 12.1313 92.8225 12.5284 92.3567 13.0339C91.891 13.5394 91.5139 14.1411 91.2255 14.8391C90.9594 15.5131 90.8263 16.2352 90.8263 17.0054Z" fill="#ED3237"/>
<path d="M109.051 0.794309H112.977V8.30414C114.063 7.55797 115.272 7.18488 116.603 7.18488C117.734 7.18488 118.766 7.40151 119.697 7.83477C120.629 8.26803 121.427 8.85774 122.093 9.60391C122.758 10.3501 123.268 11.2286 123.623 12.2396C124 13.2264 124.189 14.2855 124.189 15.4168V26.0678H120.263V15.3807C120.263 14.8512 120.163 14.3457 119.963 13.8643C119.786 13.3829 119.531 12.9617 119.198 12.6006C118.865 12.2396 118.477 11.9628 118.034 11.7702C117.59 11.5536 117.113 11.4453 116.603 11.4453C116.137 11.4453 115.683 11.5536 115.239 11.7702C114.817 11.9868 114.44 12.2877 114.108 12.6728C113.775 13.0339 113.509 13.4551 113.309 13.9365C113.11 14.4179 113.01 14.9113 113.01 15.4168V26.0678H109.051V0.794309Z" fill="#ED3237"/>
<path d="M127.189 17.0054C127.189 15.6334 127.422 14.3577 127.888 13.1783C128.376 11.9748 129.03 10.9398 129.851 10.0733C130.672 9.18269 131.625 8.48466 132.712 7.97919C133.821 7.44965 135.008 7.18488 136.272 7.18488C137.536 7.18488 138.712 7.44965 139.799 7.97919C140.908 8.48466 141.862 9.18269 142.66 10.0733C143.481 10.9398 144.124 11.9748 144.59 13.1783C145.078 14.3577 145.322 15.6334 145.322 17.0054V26.0678H141.462V25.0568C139.954 26.2363 138.224 26.826 136.272 26.826C134.897 26.826 133.644 26.5732 132.513 26.0678C131.404 25.5623 130.45 24.8643 129.651 23.9737C128.875 23.0831 128.265 22.0481 127.822 20.8687C127.4 19.6652 127.189 18.3774 127.189 17.0054ZM131.082 17.0054C131.082 17.7757 131.215 18.5098 131.481 19.2078C131.77 19.8818 132.147 20.4715 132.612 20.977C133.078 21.4824 133.622 21.8916 134.243 22.2045C134.886 22.4934 135.562 22.6378 136.272 22.6378C136.982 22.6378 137.647 22.5054 138.268 22.2406C138.912 21.9518 139.466 21.5546 139.932 21.0492C140.398 20.5437 140.764 19.954 141.03 19.28C141.318 18.582 141.462 17.8238 141.462 17.0054C141.462 16.2352 141.318 15.5131 141.03 14.8391C140.764 14.1411 140.398 13.5394 139.932 13.0339C139.466 12.5284 138.912 12.1313 138.268 11.8424C137.647 11.5295 136.982 11.3731 136.272 11.3731C135.562 11.3731 134.886 11.5295 134.243 11.8424C133.622 12.1313 133.078 12.5284 132.612 13.0339C132.147 13.5394 131.77 14.1411 131.481 14.8391C131.215 15.5131 131.082 16.2352 131.082 17.0054Z" fill="#ED3237"/>
<path d="M171.398 8.0153H175.29V18.594C175.29 19.7253 175.091 20.7964 174.692 21.8074C174.292 22.7942 173.749 23.6608 173.061 24.4069C172.396 25.1531 171.597 25.7428 170.666 26.1761C169.757 26.6093 168.781 26.826 167.738 26.826C166.607 26.826 165.564 26.5853 164.611 26.1039C163.657 25.6225 162.825 24.9605 162.115 24.1181C161.406 24.9605 160.574 25.6225 159.62 26.1039C158.666 26.5853 157.624 26.826 156.493 26.826C155.45 26.826 154.463 26.6093 153.532 26.1761C152.622 25.7428 151.824 25.1531 151.136 24.4069C150.471 23.6608 149.939 22.7942 149.539 21.8074C149.162 20.7964 148.974 19.7253 148.974 18.594V8.0153H152.833V18.594C152.833 19.1476 152.922 19.6652 153.099 20.1466C153.299 20.628 153.565 21.0492 153.898 21.4102C154.23 21.7713 154.619 22.0601 155.062 22.2767C155.506 22.4934 155.983 22.6017 156.493 22.6017C156.981 22.6017 157.447 22.4934 157.89 22.2767C158.356 22.0601 158.755 21.7713 159.088 21.4102C159.421 21.0492 159.687 20.628 159.886 20.1466C160.086 19.6652 160.186 19.1476 160.186 18.594V8.0153H164.112V18.594C164.112 19.1717 164.2 19.7133 164.378 20.2188C164.577 20.7002 164.844 21.1214 165.176 21.4824C165.509 21.8435 165.886 22.1203 166.307 22.3128C166.751 22.5054 167.228 22.6017 167.738 22.6017C168.226 22.6017 168.692 22.4934 169.135 22.2767C169.579 22.0601 169.967 21.7713 170.3 21.4102C170.633 21.0492 170.899 20.628 171.098 20.1466C171.298 19.6652 171.398 19.1476 171.398 18.594V8.0153Z" fill="#ED3237"/>
<path d="M178.947 17.0054C178.947 15.6334 179.18 14.3577 179.645 13.1783C180.133 11.9748 180.788 10.9398 181.608 10.0733C182.429 9.18269 183.383 8.48466 184.47 7.97919C185.579 7.44965 186.765 7.18488 188.03 7.18488C189.294 7.18488 190.469 7.44965 191.556 7.97919C192.665 8.48466 193.619 9.18269 194.418 10.0733C195.238 10.9398 195.881 11.9748 196.347 13.1783C196.835 14.3577 197.079 15.6334 197.079 17.0054V26.0678H193.22V25.0568C191.712 26.2363 189.981 26.826 188.03 26.826C186.654 26.826 185.401 26.5732 184.27 26.0678C183.161 25.5623 182.207 24.8643 181.409 23.9737C180.633 23.0831 180.023 22.0481 179.579 20.8687C179.158 19.6652 178.947 18.3774 178.947 17.0054ZM182.839 17.0054C182.839 17.7757 182.973 18.5098 183.239 19.2078C183.527 19.8818 183.904 20.4715 184.37 20.977C184.836 21.4824 185.379 21.8916 186 22.2045C186.643 22.4934 187.32 22.6378 188.03 22.6378C188.739 22.6378 189.405 22.5054 190.026 22.2406C190.669 21.9518 191.224 21.5546 191.689 21.0492C192.155 20.5437 192.521 19.954 192.787 19.28C193.076 18.582 193.22 17.8238 193.22 17.0054C193.22 16.2352 193.076 15.5131 192.787 14.8391C192.521 14.1411 192.155 13.5394 191.689 13.0339C191.224 12.5284 190.669 12.1313 190.026 11.8424C189.405 11.5295 188.739 11.3731 188.03 11.3731C187.32 11.3731 186.643 11.5295 186 11.8424C185.379 12.1313 184.836 12.5284 184.37 13.0339C183.904 13.5394 183.527 14.1411 183.239 14.8391C182.973 15.5131 182.839 16.2352 182.839 17.0054Z" fill="#ED3237"/>
<path d="M210.812 11.6258C210.102 11.6258 209.381 11.7702 208.649 12.059C207.94 12.3479 207.296 12.7691 206.72 13.3227C206.143 13.8763 205.666 14.5623 205.289 15.3807C204.934 16.175 204.757 17.0776 204.757 18.0886V26.0678H200.897V8.0153H204.757V10.3982C205.2 9.79647 205.699 9.291 206.254 8.88181C206.831 8.47262 207.418 8.14768 208.017 7.90698C208.616 7.64221 209.204 7.46169 209.781 7.36541C210.357 7.24506 210.879 7.18488 211.344 7.18488L210.812 11.6258Z" fill="#ED3237"/>
<path d="M216.727 17.2943C216.749 18.0404 216.904 18.7385 217.193 19.3884C217.481 20.0382 217.858 20.6039 218.324 21.0853C218.79 21.5667 219.333 21.9518 219.954 22.2406C220.575 22.5054 221.23 22.6378 221.917 22.6378C223.071 22.6378 224.058 22.3369 224.878 21.7352C225.699 21.1094 226.298 20.2789 226.675 19.2439H230.9C230.523 20.6159 230.024 21.7833 229.403 22.7461C228.782 23.7089 228.072 24.4912 227.274 25.0929C226.475 25.6947 225.621 26.1279 224.712 26.3927C223.803 26.6815 222.871 26.826 221.917 26.826C220.653 26.826 219.466 26.5732 218.357 26.0678C217.27 25.5382 216.317 24.8402 215.496 23.9737C214.675 23.0831 214.021 22.0481 213.533 20.8687C213.067 19.6652 212.834 18.3774 212.834 17.0054C212.834 15.6334 213.067 14.3577 213.533 13.1783C214.021 11.9748 214.675 10.9398 215.496 10.0733C216.317 9.18269 217.27 8.48466 218.357 7.97919C219.466 7.44965 220.653 7.18488 221.917 7.18488C223.315 7.18488 224.568 7.46169 225.677 8.0153C226.786 8.5689 227.728 9.31507 228.505 10.2538C229.281 11.1685 229.88 12.2396 230.301 13.4671C230.745 14.6947 230.978 15.9704 231 17.2943H216.727ZM226.642 14.4781C226.309 13.4671 225.721 12.6127 224.878 11.9146C224.035 11.1925 223.048 10.8315 221.917 10.8315C220.786 10.8315 219.799 11.1925 218.956 11.9146C218.113 12.6127 217.526 13.4671 217.193 14.4781H226.642Z" fill="#ED3237"/>
<path d="M130.062 37.7962C131.288 37.7962 131.901 37.3641 131.901 36.4998C131.901 36.2338 131.845 36.0094 131.732 35.8266C131.627 35.6355 131.482 35.4734 131.296 35.3404C131.11 35.1991 130.897 35.0786 130.655 34.9789C130.421 34.8792 130.171 34.7795 129.905 34.6797C129.598 34.5717 129.308 34.4512 129.033 34.3182C128.759 34.1769 128.521 34.0149 128.32 33.832C128.118 33.6409 127.957 33.4165 127.836 33.1589C127.723 32.9012 127.666 32.5896 127.666 32.2239C127.666 31.4676 127.916 30.8776 128.416 30.4537C128.916 30.0299 129.606 29.818 130.485 29.818C130.994 29.818 131.453 29.8762 131.865 29.9925C132.284 30.1005 132.591 30.221 132.784 30.354L132.409 31.3388C132.24 31.2308 131.986 31.1269 131.647 31.0272C131.316 30.9191 130.929 30.8651 130.485 30.8651C130.259 30.8651 130.05 30.8901 129.856 30.9399C129.663 30.9898 129.493 31.0646 129.348 31.1643C129.203 31.264 129.086 31.3929 128.997 31.5508C128.916 31.7003 128.876 31.879 128.876 32.0868C128.876 32.3195 128.92 32.5148 129.009 32.6727C129.098 32.8306 129.223 32.9719 129.384 33.0965C129.546 33.2129 129.731 33.3209 129.941 33.4207C130.159 33.5204 130.397 33.6201 130.655 33.7198C131.018 33.8694 131.348 34.019 131.647 34.1686C131.953 34.3182 132.216 34.4969 132.433 34.7047C132.659 34.9124 132.833 35.1617 132.954 35.4526C133.075 35.7352 133.135 36.0801 133.135 36.4873C133.135 37.2436 132.865 37.8253 132.324 38.2325C131.792 38.6398 131.038 38.8434 130.062 38.8434C129.731 38.8434 129.425 38.8184 129.142 38.7686C128.868 38.727 128.622 38.6772 128.404 38.619C128.186 38.5525 127.997 38.486 127.836 38.4195C127.682 38.3447 127.561 38.2824 127.473 38.2325L127.823 37.2353C128.009 37.3433 128.291 37.4638 128.67 37.5968C129.05 37.7297 129.513 37.7962 130.062 37.7962Z" fill="#96989A"/>
<path d="M140.035 35.4152C140.035 35.9305 139.962 36.3959 139.817 36.8114C139.672 37.2269 139.466 37.5843 139.2 37.8835C138.942 38.1827 138.631 38.4154 138.268 38.5816C137.905 38.7395 137.51 38.8184 137.082 38.8184C136.655 38.8184 136.26 38.7395 135.897 38.5816C135.534 38.4154 135.219 38.1827 134.953 37.8835C134.695 37.5843 134.493 37.2269 134.348 36.8114C134.203 36.3959 134.13 35.9305 134.13 35.4152C134.13 34.9083 134.203 34.447 134.348 34.0315C134.493 33.6076 134.695 33.2461 134.953 32.9469C135.219 32.6478 135.534 32.4192 135.897 32.2613C136.26 32.0951 136.655 32.012 137.082 32.012C137.51 32.012 137.905 32.0951 138.268 32.2613C138.631 32.4192 138.942 32.6478 139.2 32.9469C139.466 33.2461 139.672 33.6076 139.817 34.0315C139.962 34.447 140.035 34.9083 140.035 35.4152ZM138.861 35.4152C138.861 34.6839 138.7 34.1063 138.377 33.6824C138.062 33.2503 137.631 33.0342 137.082 33.0342C136.534 33.0342 136.098 33.2503 135.776 33.6824C135.461 34.1063 135.304 34.6839 135.304 35.4152C135.304 36.1466 135.461 36.7283 135.776 37.1605C136.098 37.5843 136.534 37.7962 137.082 37.7962C137.631 37.7962 138.062 37.5843 138.377 37.1605C138.7 36.7283 138.861 36.1466 138.861 35.4152Z" fill="#96989A"/>
<path d="M144.074 28.9828C144.405 28.9828 144.687 29.0077 144.921 29.0576C145.163 29.1074 145.332 29.1531 145.429 29.1947L145.223 30.192C145.127 30.1421 144.989 30.0964 144.812 30.0548C144.635 30.005 144.417 29.98 144.159 29.98C143.634 29.98 143.267 30.1296 143.058 30.4288C142.848 30.7197 142.743 31.1144 142.743 31.6131V32.1741H145.163V33.1464H142.743V38.6564H141.618V31.5882C141.618 30.7571 141.815 30.1172 142.211 29.6684C142.606 29.2113 143.227 28.9828 144.074 28.9828Z" fill="#96989A"/>
<path d="M147.338 32.1741H149.721V33.1464H147.338V36.1383C147.338 36.4624 147.362 36.7325 147.41 36.9485C147.459 37.1563 147.531 37.3225 147.628 37.4472C147.725 37.5635 147.846 37.6466 147.991 37.6965C148.136 37.7464 148.306 37.7713 148.499 37.7713C148.838 37.7713 149.108 37.7339 149.31 37.6591C149.52 37.576 149.665 37.5178 149.745 37.4846L149.963 38.4445C149.85 38.5026 149.653 38.5733 149.37 38.6564C149.088 38.7478 148.765 38.7935 148.402 38.7935C147.975 38.7935 147.62 38.7395 147.338 38.6315C147.063 38.5151 146.842 38.3447 146.672 38.1203C146.503 37.896 146.382 37.6217 146.309 37.2976C146.245 36.9652 146.212 36.5829 146.212 36.1507V30.3665L147.338 30.167V32.1741Z" fill="#96989A"/>
<path d="M156.295 38.6564C156.07 38.058 155.828 37.3765 155.569 36.612C155.319 35.8391 155.09 35.0371 154.88 34.206C154.67 35.0371 154.44 35.8391 154.19 36.612C153.94 37.3765 153.702 38.058 153.476 38.6564H152.496C152.125 37.8004 151.762 36.8239 151.407 35.7269C151.052 34.6299 150.718 33.4456 150.403 32.1741H151.613C151.694 32.5647 151.79 32.9885 151.903 33.4456C152.016 33.9027 152.133 34.3598 152.254 34.8169C152.383 35.2739 152.516 35.7144 152.653 36.1383C152.791 36.5621 152.92 36.9319 153.041 37.2477C153.178 36.8571 153.311 36.4457 153.44 36.0136C153.577 35.5731 153.706 35.1327 153.827 34.6922C153.948 34.2434 154.061 33.8071 154.166 33.3833C154.279 32.9511 154.376 32.548 154.456 32.1741H155.388C155.461 32.548 155.549 32.9511 155.654 33.3833C155.759 33.8071 155.872 34.2434 155.993 34.6922C156.114 35.1327 156.239 35.5731 156.368 36.0136C156.505 36.4457 156.642 36.8571 156.779 37.2477C156.9 36.9319 157.025 36.5621 157.154 36.1383C157.292 35.7144 157.425 35.2739 157.554 34.8169C157.683 34.3598 157.804 33.9027 157.917 33.4456C158.03 32.9885 158.126 32.5647 158.207 32.1741H159.369C159.054 33.4456 158.719 34.6299 158.364 35.7269C158.01 36.8239 157.647 37.8004 157.275 38.6564H156.295Z" fill="#96989A"/>
<path d="M162.688 37.8212C162.954 37.8212 163.188 37.817 163.39 37.8087C163.6 37.7921 163.773 37.7671 163.91 37.7339V35.8017C163.83 35.7601 163.696 35.7269 163.511 35.7019C163.333 35.6687 163.116 35.6521 162.858 35.6521C162.688 35.6521 162.507 35.6645 162.313 35.6895C162.128 35.7144 161.954 35.7684 161.793 35.8515C161.639 35.9263 161.51 36.0344 161.406 36.1756C161.301 36.3086 161.248 36.4873 161.248 36.7117C161.248 37.1272 161.377 37.4181 161.635 37.5843C161.894 37.7422 162.244 37.8212 162.688 37.8212ZM162.591 32.012C163.043 32.012 163.422 32.0743 163.729 32.199C164.043 32.3153 164.293 32.4857 164.479 32.7101C164.672 32.9262 164.81 33.188 164.89 33.4955C164.971 33.7946 165.011 34.1271 165.011 34.4927V38.5442C164.914 38.5608 164.777 38.5857 164.6 38.619C164.43 38.6439 164.237 38.6689 164.019 38.6938C163.801 38.7187 163.563 38.7395 163.305 38.7561C163.055 38.781 162.805 38.7935 162.555 38.7935C162.2 38.7935 161.873 38.7561 161.575 38.6813C161.277 38.6065 161.018 38.4902 160.801 38.3323C160.583 38.1661 160.413 37.95 160.292 37.684C160.171 37.4181 160.111 37.0981 160.111 36.7242C160.111 36.3668 160.179 36.0593 160.317 35.8017C160.462 35.544 160.655 35.3363 160.897 35.1784C161.139 35.0205 161.422 34.9041 161.744 34.8293C162.067 34.7545 162.406 34.7171 162.761 34.7171C162.874 34.7171 162.991 34.7254 163.112 34.7421C163.233 34.7504 163.346 34.767 163.45 34.7919C163.563 34.8085 163.66 34.8252 163.741 34.8418C163.821 34.8584 163.878 34.8709 163.91 34.8792V34.5551C163.91 34.3639 163.89 34.1769 163.85 33.9941C163.809 33.8029 163.737 33.6367 163.632 33.4955C163.527 33.3459 163.382 33.2295 163.196 33.1464C163.019 33.055 162.785 33.0093 162.495 33.0093C162.123 33.0093 161.797 33.0384 161.514 33.0965C161.24 33.1464 161.035 33.2004 160.897 33.2586L160.764 32.2987C160.909 32.2322 161.151 32.1699 161.49 32.1117C161.829 32.0452 162.196 32.012 162.591 32.012Z" fill="#96989A"/>
<path d="M169.203 32.0369C169.3 32.0369 169.409 32.0452 169.53 32.0619C169.659 32.0702 169.784 32.0868 169.905 32.1117C170.026 32.1283 170.135 32.1491 170.232 32.1741C170.337 32.1907 170.413 32.2073 170.462 32.2239L170.268 33.2337C170.179 33.2004 170.03 33.163 169.82 33.1215C169.619 33.0716 169.356 33.0467 169.034 33.0467C168.824 33.0467 168.614 33.0716 168.405 33.1215C168.203 33.163 168.07 33.1921 168.005 33.2087V38.6564H166.88V32.4483C167.146 32.3486 167.477 32.2572 167.872 32.1741C168.268 32.0826 168.711 32.0369 169.203 32.0369Z" fill="#96989A"/>
<path d="M171.197 35.4277C171.197 34.8543 171.277 34.3556 171.439 33.9318C171.6 33.4996 171.814 33.1423 172.08 32.8597C172.346 32.5771 172.652 32.3652 172.999 32.2239C173.346 32.0826 173.701 32.012 174.064 32.012C174.911 32.012 175.56 32.2863 176.012 32.8348C176.464 33.375 176.69 34.2019 176.69 35.3155C176.69 35.3654 176.69 35.4318 176.69 35.5149C176.69 35.5897 176.686 35.6604 176.678 35.7269H172.37C172.419 36.4 172.608 36.9111 172.939 37.2602C173.27 37.6092 173.786 37.7838 174.488 37.7838C174.883 37.7838 175.214 37.7505 175.48 37.684C175.754 37.6092 175.96 37.5386 176.097 37.4721L176.254 38.4445C176.117 38.5193 175.875 38.5982 175.528 38.6813C175.189 38.7644 174.802 38.806 174.367 38.806C173.818 38.806 173.342 38.7229 172.939 38.5567C172.544 38.3821 172.217 38.1453 171.959 37.8461C171.701 37.5469 171.507 37.1937 171.378 36.7865C171.257 36.3709 171.197 35.918 171.197 35.4277ZM175.516 34.7919C175.524 34.2683 175.395 33.8403 175.129 33.5079C174.871 33.1672 174.512 32.9968 174.052 32.9968C173.794 32.9968 173.564 33.0508 173.362 33.1589C173.169 33.2586 173.003 33.3916 172.866 33.5578C172.729 33.724 172.62 33.9151 172.54 34.1312C172.467 34.3473 172.419 34.5675 172.394 34.7919H175.516Z" fill="#96989A"/>
<path d="M184.785 38.8434C184.196 38.8434 183.659 38.7436 183.175 38.5442C182.692 38.3447 182.276 38.0539 181.929 37.6716C181.582 37.2893 181.312 36.8197 181.119 36.2629C180.933 35.6978 180.84 35.0537 180.84 34.3307C180.84 33.6076 180.945 32.9677 181.155 32.4109C181.373 31.8458 181.663 31.3721 182.026 30.9898C182.389 30.6075 182.812 30.3166 183.296 30.1172C183.78 29.9177 184.297 29.818 184.845 29.818C185.192 29.818 185.503 29.8429 185.777 29.8928C186.059 29.9426 186.301 30.0008 186.503 30.0673C186.713 30.1338 186.882 30.2003 187.011 30.2668C187.14 30.3332 187.229 30.3831 187.277 30.4163L186.938 31.4136C186.866 31.3638 186.761 31.3097 186.624 31.2516C186.487 31.1934 186.329 31.1352 186.152 31.077C185.983 31.0189 185.793 30.9732 185.583 30.9399C185.382 30.8984 185.176 30.8776 184.966 30.8776C184.523 30.8776 184.123 30.9565 183.768 31.1144C183.413 31.2723 183.111 31.5009 182.861 31.8001C182.611 32.0993 182.417 32.4649 182.28 32.8971C182.151 33.3209 182.087 33.7988 182.087 34.3307C182.087 34.8459 182.143 35.3155 182.256 35.7393C182.377 36.1632 182.554 36.5289 182.788 36.8363C183.022 37.1355 183.313 37.3682 183.659 37.5344C184.014 37.7007 184.426 37.7838 184.894 37.7838C185.434 37.7838 185.882 37.7256 186.237 37.6092C186.592 37.4929 186.858 37.389 187.035 37.2976L187.338 38.2949C187.281 38.3364 187.18 38.3904 187.035 38.4569C186.89 38.5151 186.709 38.5733 186.491 38.6315C186.273 38.6896 186.019 38.7395 185.728 38.781C185.438 38.8226 185.123 38.8434 184.785 38.8434Z" fill="#96989A"/>
<path d="M193.986 35.4152C193.986 35.9305 193.913 36.3959 193.768 36.8114C193.623 37.2269 193.417 37.5843 193.151 37.8835C192.893 38.1827 192.582 38.4154 192.219 38.5816C191.856 38.7395 191.461 38.8184 191.034 38.8184C190.606 38.8184 190.211 38.7395 189.848 38.5816C189.485 38.4154 189.17 38.1827 188.904 37.8835C188.646 37.5843 188.444 37.2269 188.299 36.8114C188.154 36.3959 188.081 35.9305 188.081 35.4152C188.081 34.9083 188.154 34.447 188.299 34.0315C188.444 33.6076 188.646 33.2461 188.904 32.9469C189.17 32.6478 189.485 32.4192 189.848 32.2613C190.211 32.0951 190.606 32.012 191.034 32.012C191.461 32.012 191.856 32.0951 192.219 32.2613C192.582 32.4192 192.893 32.6478 193.151 32.9469C193.417 33.2461 193.623 33.6076 193.768 34.0315C193.913 34.447 193.986 34.9083 193.986 35.4152ZM192.812 35.4152C192.812 34.6839 192.651 34.1063 192.328 33.6824C192.014 33.2503 191.582 33.0342 191.034 33.0342C190.485 33.0342 190.05 33.2503 189.727 33.6824C189.412 34.1063 189.255 34.6839 189.255 35.4152C189.255 36.1466 189.412 36.7283 189.727 37.1605C190.05 37.5843 190.485 37.7962 191.034 37.7962C191.582 37.7962 192.014 37.5843 192.328 37.1605C192.651 36.7283 192.812 36.1466 192.812 35.4152Z" fill="#96989A"/>
<path d="M195.569 32.361C195.827 32.2946 196.166 32.2239 196.585 32.1491C197.013 32.0743 197.505 32.0369 198.062 32.0369C198.465 32.0369 198.804 32.0951 199.078 32.2115C199.352 32.3195 199.582 32.4816 199.768 32.6976C199.824 32.6561 199.913 32.5979 200.034 32.5231C200.155 32.4483 200.304 32.3777 200.482 32.3112C200.659 32.2364 200.857 32.1741 201.074 32.1242C201.292 32.066 201.526 32.0369 201.776 32.0369C202.26 32.0369 202.655 32.1117 202.962 32.2613C203.268 32.4026 203.506 32.6062 203.676 32.8722C203.853 33.1381 203.97 33.4539 204.027 33.8196C204.091 34.1852 204.123 34.5842 204.123 35.0163V38.6564H202.998V35.2656C202.998 34.8833 202.978 34.5551 202.938 34.2808C202.905 34.0066 202.837 33.778 202.732 33.5952C202.635 33.4123 202.498 33.2794 202.321 33.1963C202.151 33.1049 201.929 33.0591 201.655 33.0591C201.276 33.0591 200.961 33.1132 200.711 33.2212C200.469 33.3209 200.304 33.4123 200.215 33.4955C200.28 33.7115 200.328 33.9484 200.361 34.206C200.393 34.4636 200.409 34.7337 200.409 35.0163V38.6564H199.284V35.2656C199.284 34.8833 199.264 34.5551 199.223 34.2808C199.183 34.0066 199.11 33.778 199.005 33.5952C198.909 33.4123 198.771 33.2794 198.594 33.1963C198.425 33.1049 198.207 33.0591 197.941 33.0591C197.828 33.0591 197.707 33.0633 197.578 33.0716C197.449 33.0799 197.324 33.0924 197.203 33.109C197.09 33.1173 196.985 33.1298 196.888 33.1464C196.791 33.163 196.727 33.1755 196.694 33.1838V38.6564H195.569V32.361Z" fill="#96989A"/>
<path d="M210.359 35.4277C210.359 34.6714 210.177 34.0897 209.814 33.6824C209.451 33.2752 208.967 33.0716 208.362 33.0716C208.023 33.0716 207.757 33.0841 207.564 33.109C207.378 33.1339 207.229 33.163 207.116 33.1963V37.2851C207.253 37.4015 207.451 37.5137 207.709 37.6217C207.967 37.7297 208.249 37.7838 208.556 37.7838C208.879 37.7838 209.153 37.7256 209.379 37.6092C209.613 37.4846 209.802 37.3184 209.947 37.1106C210.092 36.8945 210.197 36.6452 210.262 36.3626C210.326 36.0718 210.359 35.7601 210.359 35.4277ZM211.532 35.4277C211.532 35.918 211.468 36.3709 211.339 36.7865C211.218 37.202 211.036 37.5594 210.794 37.8586C210.552 38.1577 210.254 38.3904 209.899 38.5567C209.552 38.7229 209.153 38.806 208.701 38.806C208.338 38.806 208.015 38.7561 207.733 38.6564C207.459 38.5567 207.253 38.4611 207.116 38.3697V40.9626H205.991V32.3735C206.257 32.307 206.588 32.2364 206.983 32.1616C207.386 32.0785 207.85 32.0369 208.374 32.0369C208.858 32.0369 209.294 32.1159 209.681 32.2738C210.068 32.4317 210.399 32.6561 210.673 32.9469C210.948 33.2378 211.157 33.5952 211.302 34.019C211.456 34.4346 211.532 34.9041 211.532 35.4277Z" fill="#96989A"/>
<path d="M215.245 37.8212C215.511 37.8212 215.745 37.817 215.947 37.8087C216.157 37.7921 216.33 37.7671 216.467 37.7339V35.8017C216.387 35.7601 216.254 35.7269 216.068 35.7019C215.891 35.6687 215.673 35.6521 215.415 35.6521C215.245 35.6521 215.064 35.6645 214.87 35.6895C214.685 35.7144 214.511 35.7684 214.35 35.8515C214.197 35.9263 214.068 36.0344 213.963 36.1756C213.858 36.3086 213.805 36.4873 213.805 36.7117C213.805 37.1272 213.934 37.4181 214.193 37.5843C214.451 37.7422 214.802 37.8212 215.245 37.8212ZM215.148 32.012C215.6 32.012 215.979 32.0743 216.286 32.199C216.6 32.3153 216.85 32.4857 217.036 32.7101C217.23 32.9262 217.367 33.188 217.447 33.4955C217.528 33.7946 217.568 34.1271 217.568 34.4927V38.5442C217.472 38.5608 217.334 38.5857 217.157 38.619C216.988 38.6439 216.794 38.6689 216.576 38.6938C216.358 38.7187 216.12 38.7395 215.862 38.7561C215.612 38.781 215.362 38.7935 215.112 38.7935C214.757 38.7935 214.431 38.7561 214.132 38.6813C213.834 38.6065 213.576 38.4902 213.358 38.3323C213.14 38.1661 212.971 37.95 212.85 37.684C212.729 37.4181 212.668 37.0981 212.668 36.7242C212.668 36.3668 212.737 36.0593 212.874 35.8017C213.019 35.544 213.213 35.3363 213.455 35.1784C213.697 35.0205 213.979 34.9041 214.302 34.8293C214.624 34.7545 214.963 34.7171 215.318 34.7171C215.431 34.7171 215.548 34.7254 215.669 34.7421C215.79 34.7504 215.903 34.767 216.008 34.7919C216.12 34.8085 216.217 34.8252 216.298 34.8418C216.379 34.8584 216.435 34.8709 216.467 34.8792V34.5551C216.467 34.3639 216.447 34.1769 216.407 33.9941C216.366 33.8029 216.294 33.6367 216.189 33.4955C216.084 33.3459 215.939 33.2295 215.753 33.1464C215.576 33.055 215.342 33.0093 215.052 33.0093C214.681 33.0093 214.354 33.0384 214.072 33.0965C213.797 33.1464 213.592 33.2004 213.455 33.2586L213.321 32.2987C213.467 32.2322 213.709 32.1699 214.047 32.1117C214.386 32.0452 214.753 32.012 215.148 32.012Z" fill="#96989A"/>
<path d="M219.437 32.361C219.695 32.2946 220.038 32.2239 220.466 32.1491C220.893 32.0743 221.385 32.0369 221.942 32.0369C222.442 32.0369 222.857 32.1117 223.188 32.2613C223.519 32.4026 223.781 32.6062 223.975 32.8722C224.176 33.1298 224.317 33.4414 224.398 33.8071C224.479 34.1728 224.519 34.5758 224.519 35.0163V38.6564H223.394V35.2656C223.394 34.8667 223.366 34.526 223.309 34.2434C223.261 33.9609 223.176 33.7323 223.055 33.5578C222.934 33.3833 222.773 33.2586 222.571 33.1838C222.369 33.1007 222.119 33.0591 221.821 33.0591C221.7 33.0591 221.575 33.0633 221.446 33.0716C221.317 33.0799 221.192 33.0924 221.071 33.109C220.958 33.1173 220.853 33.1298 220.756 33.1464C220.667 33.163 220.603 33.1755 220.563 33.1838V38.6564H219.437V32.361Z" fill="#96989A"/>
<path d="M225.434 39.8656C225.523 39.9071 225.636 39.9445 225.773 39.9778C225.918 40.0193 226.059 40.0401 226.197 40.0401C226.64 40.0401 226.987 39.9362 227.237 39.7285C227.487 39.529 227.713 39.2007 227.915 38.7436C227.406 37.7464 226.931 36.6909 226.487 35.5773C226.051 34.4553 225.688 33.3209 225.398 32.1741H226.608C226.697 32.548 226.802 32.9511 226.923 33.3833C227.052 33.8154 227.193 34.26 227.346 34.7171C227.499 35.1742 227.665 35.6313 227.842 36.0884C228.02 36.5455 228.205 36.9859 228.399 37.4098C228.705 36.5372 228.971 35.6729 229.197 34.8169C229.423 33.9609 229.637 33.0799 229.838 32.1741H231C230.71 33.3957 230.387 34.5717 230.032 35.7019C229.677 36.8239 229.294 37.8752 228.883 38.8558C228.721 39.2298 228.552 39.5498 228.374 39.8157C228.205 40.09 228.015 40.3144 227.806 40.4889C227.596 40.6634 227.358 40.7922 227.092 40.8753C226.834 40.9584 226.539 41 226.209 41C226.12 41 226.027 40.9917 225.93 40.9751C225.834 40.9668 225.737 40.9501 225.64 40.9252C225.551 40.9086 225.467 40.8878 225.386 40.8629C225.313 40.8379 225.261 40.8172 225.229 40.8005L225.434 39.8656Z" fill="#96989A"/>
</svg>
